0
SECTION
2
HEADER
9
$INSUNITS
70
4
9
$ACADVER
1
AC1014
9
$HANDSEED
5
FFFF
0
ENDSEC
0
SECTION
2
TABLES
0
TABLE
2
VPORT
5
8
100
AcDbSymbolTable
0
ENDTAB
0
TABLE
2
LTYPE
5
5
100
AcDbSymbolTable
0
LTYPE
5
14
100
AcDbSymbolTableRecord
100
AcDbLinetypeTableRecord
2
BYBLOCK
70
0
0
LTYPE
5
15
100
AcDbSymbolTableRecord
100
AcDbLinetypeTableRecord
2
BYLAYER
70
0
0
LTYPE
5
16
100
AcDbSymbolTableRecord
100
AcDbLinetypeTableRecord
2
DASHED
70
0
3
Dashed __ __ __ __ __ __ __ __ __ __ __ __ __ _
72
65
73
2
40
0.75
49
0.5
74
0
49
-0.25
74
0
0
ENDTAB
0
TABLE
2
LAYER
5
2
100
AcDbSymbolTable
70
3
0
LAYER
5
50
100
AcDbSymbolTableRecord
100
AcDbLayerTableRecord
2
1
70
0
62
7
6
DASHED
0
LAYER
5
51
100
AcDbSymbolTableRecord
100
AcDbLayerTableRecord
2
0
70
0
62
7
6
CONTINUOUS
0
ENDTAB
0
TABLE
2
STYLE
5
3
100
AcDbSymbolTable
70
1
0
STYLE
5
11
100
AcDbSymbolTableRecord
100
AcDbTextStyleTableRecord
2
STANDARD
70
0
0
ENDTAB
0
TABLE
2
VIEW
5
6
100
AcDbSymbolTable
70
0
0
ENDTAB
0
TABLE
2
UCS
5
7
100
AcDbSymbolTable
70
0
0
ENDTAB
0
TABLE
2
APPID
5
9
100
AcDbSymbolTable
70
2
0
APPID
5
12
100
AcDbSymbolTableRecord
100
AcDbRegAppTableRecord
2
ACAD
70
0
0
ENDTAB
0
TABLE
2
DIMSTYLE
5
A
100
AcDbSymbolTable
70
1
0
ENDTAB
0
TABLE
2
BLOCK_RECORD
5
1
100
AcDbSymbolTable
70
1
0
BLOCK_RECORD
5
1F
100
AcDbSymbolTableRecord
100
AcDbBlockTableRecord
2
*MODEL_SPACE
0
BLOCK_RECORD
5
1B
100
AcDbSymbolTableRecord
100
AcDbBlockTableRecord
2
*PAPER_SPACE
0
ENDTAB
0
ENDSEC
0
SECTION
2
BLOCKS
0
BLOCK
5
20
100
AcDbEntity
100
AcDbBlockBegin
2
*MODEL_SPACE
0
ENDBLK
5
21
100
AcDbEntity
100
AcDbBlockEnd
0
BLOCK
5
1C
100
AcDbEntity
100
AcDbBlockBegin
2
*PAPER_SPACE
0
ENDBLK
5
1D
100
AcDbEntity
100
AcDbBlockEnd
0
ENDSEC
0
SECTION
2
ENTITIES
0
LWPOLYLINE
5
100
100
AcDbEntity
8
0
100
AcDbPolyline
90
8
70
1
43
0.0
10
19.906941410558488
20
101.56738067929773
10
117.90694141055852
20
101.56738067929774
42
-0.41421356237307427
10
118.90694141055849
20
100.56738067929773
10
118.90694141055849
20
99.567380679297713
42
-0.41421356237309509
10
117.9069414105585
20
98.567380679297713
10
19.90694141055851
20
98.567380679297713
42
-0.41421356237309243
10
18.906941410558488
20
99.567380679297713
10
18.906941410558492
20
100.56738067929773
42
-0.41421356237309437
0
LWPOLYLINE
5
101
100
AcDbEntity
8
0
100
AcDbPolyline
90
8
70
1
43
0.0
10
-46.093058589439615
20
26.067380679298736
10
-46.093058589439607
20
-30.932619320700582
42
-0.41421356237309243
10
-47.093058589439607
20
-31.932619320700578
10
-48.093058589439607
20
-31.932619320700574
42
-0.41421356237309243
10
-49.093058589439607
20
-30.932619320700574
10
-49.093058589439607
20
26.067380679298743
42
-0.41421356237308726
10
-48.093058589439607
20
27.067380679298736
10
-47.093058589439622
20
27.067380679298729
42
-0.4142135623730937
0
LWPOLYLINE
5
102
100
AcDbEntity
8
0
100
AcDbPolyline
90
8
70
1
43
0.0
10
-39.093058589439607
20
26.067380679298736
10
-39.093058589439607
20
-30.932619320700582
42
-0.41421356237308854
10
-40.093058589439607
20
-31.932619320700578
10
-41.093058589439607
20
-31.932619320700567
42
-0.41421356237309109
10
-42.093058589439607
20
-30.932619320700574
10
-42.0930585894396
20
26.067380679298743
42
-0.41421356237309109
10
-41.093058589439607
20
27.067380679298736
10
-40.093058589439615
20
27.067380679298729
42
-0.41421356237308854
0
LWPOLYLINE
5
103
100
AcDbEntity
8
0
100
AcDbPolyline
90
8
70
1
43
0.0
10
19.906941410558488
20
94.567380679297713
10
117.90694141055852
20
94.567380679297742
42
-0.41421356237307427
10
118.90694141055849
20
93.567380679297713
10
118.90694141055849
20
92.567380679297713
42
-0.41421356237309509
10
117.9069414105585
20
91.567380679297713
10
19.90694141055851
20
91.567380679297727
42
-0.41421356237309509
10
18.906941410558488
20
92.567380679297713
10
18.906941410558485
20
93.567380679297713
42
-0.41421356237309692
0
LWPOLYLINE
5
104
100
AcDbEntity
8
0
100
AcDbPolyline
90
8
70
1
43
0.0
10
19.906941410558488
20
108.56738067929771
10
117.90694141055852
20
108.56738067929774
42
-0.41421356237307427
10
118.90694141055849
20
107.56738067929773
10
118.90694141055849
20
106.56738067929771
42
-0.41421356237309509
10
117.9069414105585
20
105.56738067929771
10
19.90694141055851
20
105.56738067929771
42
-0.41421356237309243
10
18.906941410558488
20
106.56738067929771
10
18.906941410558492
20
107.56738067929773
42
-0.41421356237309437
0
LWPOLYLINE
5
105
100
AcDbEntity
8
0
100
AcDbPolyline
90
8
70
1
43
0.0
10
-53.093058589439615
20
26.067380679298736
10
-53.093058589439615
20
-30.932619320700582
42
-0.4142135623730937
10
-54.093058589439607
20
-31.932619320700578
10
-55.093058589439607
20
-31.932619320700567
42
-0.41421356237309109
10
-56.093058589439615
20
-30.932619320700574
10
-56.093058589439607
20
26.067380679298743
42
-0.41421356237309109
10
-55.093058589439607
20
27.067380679298736
10
-54.093058589439607
20
27.067380679298729
42
-0.4142135623730937
0
LWPOLYLINE
5
106
100
AcDbEntity
8
0
100
AcDbPolyline
90
8
70
1
43
0.0
10
-33.093058589439607
20
-31.932619320700578
10
-34.093058589439607
20
-31.932619320700578
42
-0.4142135623730937
10
-35.093058589439615
20
-30.932619320700574
10
-35.093058589439607
20
26.067380679298743
42
-0.41421356237308854
10
-34.093058589439607
20
27.067380679298736
10
-33.093058589439607
20
27.067380679298736
42
-0.41421356237308982
10
-32.093058589439607
20
26.067380679298736
10
-32.093058589439607
20
-30.932619320700582
42
-0.41421356237308854
0
LWPOLYLINE
5
107
100
AcDbEntity
8
0
100
AcDbPolyline
90
8
70
1
43
0.0
10
19.906941410558488
20
87.567380679297727
10
117.90694141055852
20
87.567380679297742
42
-0.41421356237307427
10
118.90694141055849
20
86.567380679297727
10
118.90694141055849
20
85.567380679297713
42
-0.41421356237309509
10
117.9069414105585
20
84.567380679297713
10
19.90694141055851
20
84.567380679297742
42
-0.41421356237309509
10
18.906941410558488
20
85.567380679297713
10
18.906941410558485
20
86.567380679297727
42
-0.41421356237309692
0
LWPOLYLINE
5
108
100
AcDbEntity
8
0
100
AcDbPolyline
90
8
70
1
43
0.0
10
19.906941410558488
20
115.56738067929773
10
117.90694141055852
20
115.56738067929771
42
-0.41421356237306384
10
118.90694141055849
20
114.56738067929774
10
118.90694141055849
20
113.56738067929771
42
-0.41421356237309509
10
117.9069414105585
20
112.56738067929773
10
19.90694141055851
20
112.56738067929774
42
-0.41421356237309509
10
18.906941410558488
20
113.56738067929771
10
18.906941410558485
20
114.56738067929774
42
-0.41421356237309692
0
LWPOLYLINE
5
109
100
AcDbEntity
8
0
100
AcDbPolyline
90
4
70
1
43
0.0
10
-68.593058589443217
20
182.06738067929777
10
-68.593058589443217
20
-47.93261932070223
10
248.40694141055678
20
-47.932619320702237
10
248.40694141055678
20
182.06738067929777
0
CIRCLE
5
110
100
AcDbEntity
8
0
100
AcDbCircle
10
230.40694141055681
20
128.7673806792975
30
0
40
1.3500000000000156
210
0
220
0
230
1
0
CIRCLE
5
111
100
AcDbEntity
8
0
100
AcDbCircle
10
-49.393058589443882
20
67.067380679297756
30
0
40
4.2499999999999982
210
0
220
0
230
1
0
CIRCLE
5
112
100
AcDbEntity
8
0
100
AcDbCircle
10
230.40694141055681
20
93.767380679297503
30
0
40
1.3500000000000156
210
0
220
0
230
1
0
CIRCLE
5
113
100
AcDbEntity
8
0
100
AcDbCircle
10
-54.393058589443903
20
51.067380679297756
30
0
40
1.3499999999999979
210
0
220
0
230
1
0
CIRCLE
5
114
100
AcDbEntity
8
0
100
AcDbCircle
10
46.206941410559629
20
-3.632619320701945
30
0
40
1.3499999999999979
210
0
220
0
230
1
0
ENDSEC
0
SECTION
2
OBJECTS
0
DICTIONARY
5
C
100
AcDbDictionary
3
ACAD_GROUP
350
D
3
ACAD_MLINESTYLE
350
17
0
DICTIONARY
5
D
100
AcDbDictionary
0
DICTIONARY
5
1A
330
C
100
AcDbDictionary
0
DICTIONARY
5
17
100
AcDbDictionary
0
ENDSEC
0
EOF
